<?xml version="1.0" standalone="no"?>
<!DOCTYPE svg PUBLIC "-//W3C//DTD SVG 1.1//EN" "http://www.w3.org/Graphics/SVG/1.1/DTD/svg11.dtd" >
<svg xmlns="http://www.w3.org/2000/svg">
<metadata>Generated by IcoMoon</metadata>
<defs>
<font id="fisfont" horiz-adv-x="1024">
<font-face units-per-em="1024" ascent="960" descent="-64" />
<missing-glyph horiz-adv-x="1024" />
<glyph unicode="&#x20;" d="" horiz-adv-x="512" />
<glyph unicode="&#xe600;" d="M654.222 482.133l-56.889 62.578 147.911 147.911-147.911 153.6 56.889 56.889 210.489-210.489zM847.644 89.6h-756.622v648.533h705.422v-85.333h-620.089v-477.867h585.956v261.689h85.333z" />
<glyph unicode="&#xe601;" d="M944.356 106.667h-887.467l102.4 284.444 39.822 301.511c17.067 153.6 176.356 227.556 312.889 227.556 142.222 0 290.133-68.267 312.889-221.867l39.822-301.511 79.644-290.133zM176.356 192h654.222l-56.889 182.044-39.822 307.2c-11.378 108.089-119.467 153.6-221.867 153.6s-216.178-45.511-227.556-147.911l-39.822-312.889-68.267-182.044zM500.622-18.489c-79.644 0-147.911 68.267-147.911 147.911h85.333c0-34.133 28.444-62.578 62.578-62.578s62.578 28.444 62.578 62.578h85.333c0-85.333-68.267-147.911-147.911-147.911z" />
<glyph unicode="&#xe602;" d="M512 288.711l-142.222 119.467 56.889 68.267 73.956-62.578 136.533 170.667 62.578-51.2zM534.756-12.8c-28.444 0-56.889 11.378-73.956 28.444l-39.822 39.822c-5.689 5.689-11.378 5.689-17.067 5.689l-56.889-5.689c-56.889-5.689-113.778 34.133-125.156 91.022l-11.378 56.889c0 5.689-5.689 17.067-11.378 17.067l-51.2 28.444c-51.2 28.444-73.956 91.022-51.2 142.222l22.756 51.2c5.689 5.689 5.689 17.067 0 22.756l-22.756 51.2c-22.756 51.2-5.689 113.778 45.511 142.222l51.2 28.444c5.689 5.689 11.378 11.378 11.378 17.067l11.378 56.889c17.067 56.889 68.267 96.711 125.156 91.022l56.889-5.689c11.378 0 17.067 0 22.756 5.689l39.822 39.822c39.822 39.822 108.089 39.822 153.6 0l39.822-39.822c5.689-5.689 11.378-5.689 17.067-5.689l56.889 5.689c56.889 5.689 113.778-34.133 125.156-91.022l11.378-56.889c0-5.689 5.689-17.067 11.378-17.067l51.2-28.444c51.2-28.444 73.956-91.022 45.511-142.222l-22.756-51.2c-5.689-5.689-5.689-17.067 0-22.756l22.756-51.2c22.756-51.2 5.689-113.778-45.511-142.222l-45.511-28.444c-5.689-5.689-11.378-11.378-11.378-17.067l-11.378-56.889c-11.378-56.889-62.578-96.711-125.156-91.022l-56.889 5.689c-11.378 0-17.067 0-22.756-5.689l-39.822-39.822c-22.756-17.067-51.2-28.444-79.644-28.444zM403.911 146.489c28.444 0 56.889-11.378 73.956-28.444l39.822-39.822c11.378-11.378 28.444-11.378 34.133 0l39.822 39.822c22.756 22.756 56.889 34.133 91.022 28.444l56.889-5.689c0 0 0 0 0 0 17.067 0 28.444 11.378 28.444 22.756l11.378 56.889c5.689 34.133 28.444 56.889 56.889 73.956l51.2 28.444c11.378 5.689 17.067 22.756 11.378 34.133l-22.756 51.2c-11.378 28.444-11.378 62.578 0 91.022l22.756 51.2c5.689 11.378 0 28.444-11.378 34.133l-51.2 28.444c-28.444 17.067-51.2 45.511-56.889 73.956l-11.378 56.889c0 11.378-11.378 22.756-28.444 22.756l-56.889-5.689c-34.133-5.689-62.578 5.689-91.022 28.444l-34.133 39.822c-11.378 11.378-28.444 11.378-34.133 0l-45.511-39.822c-22.756-22.756-56.889-34.133-91.022-28.444l-56.889 5.689c0 0 0 0 0 0-17.067 0-28.444-11.378-28.444-22.756l-11.378-56.889c-5.689-34.133-28.444-56.889-56.889-73.956l-45.511-28.444c-11.378-5.689-17.067-22.756-11.378-34.133l22.756-51.2c11.378-28.444 11.378-62.578 0-91.022l-22.756-51.2c-5.689-11.378 0-28.444 11.378-34.133l51.2-28.444c28.444-17.067 45.511-45.511 51.2-73.956l11.378-56.889c0-11.378 11.378-22.756 28.444-22.756l56.889 5.689c5.689 0 11.378 0 17.067 0z" />
<glyph unicode="&#xe603;" d="M585.956 146.489l-56.889 62.578 244.622 244.622-244.622 250.311 56.889 56.889 307.2-307.2zM125.156 499.2h705.422v-85.333h-705.422v85.333z" />
<glyph unicode="&#xe604;" d="M256 328.533l-199.111 199.111 199.111 199.111 56.889-62.578-136.533-136.533 136.533-142.222zM768 135.111h-278.756v85.333h278.756c28.444 0 56.889 11.378 73.956 34.133s28.444 56.889 28.444 96.711c0 51.2-22.756 130.844-102.4 130.844h-625.778v85.333h625.778c119.467 0 187.733-108.089 187.733-216.178s-68.267-216.178-187.733-216.178z" />
<glyph unicode="&#xe605;" d="M750.933-29.867h-756.622v972.8h756.622v-159.289h-85.333v73.956h-585.956v-802.133h585.956v102.4h85.333zM164.978 715.378h307.2v-56.889h-307.2v56.889zM164.978 254.578h307.2v-56.889h-307.2v56.889zM164.978 561.778h244.622v-56.889h-244.622v56.889zM164.978 408.178h244.622v-56.889h-244.622v56.889zM716.8 209.067c-142.222 0-261.689 113.778-261.689 261.689s113.778 261.689 261.689 261.689 261.689-113.778 261.689-261.689-119.467-261.689-261.689-261.689zM716.8 641.422c-96.711 0-176.356-79.644-176.356-176.356s79.644-176.356 176.356-176.356 176.356 79.644 176.356 176.356-85.333 176.356-176.356 176.356zM728.178 556.089c11.378 0 17.067 0 28.444-5.689s17.067-5.689 28.444-11.378c-5.689-11.378-17.067-17.067-22.756-28.444-5.689 5.689-11.378 5.689-17.067 11.378-5.689 0-11.378 5.689-17.067 5.689v-39.822c5.689 0 11.378-5.689 17.067-5.689s11.378-5.689 17.067-11.378c5.689-5.689 11.378-11.378 11.378-17.067 5.689-5.689 5.689-11.378 5.689-22.756s0-17.067-5.689-22.756c-5.689-5.689-5.689-11.378-11.378-17.067s-11.378-5.689-17.067-11.378c-5.689 0-11.378-5.689-22.756-5.689v-17.067h-17.067v17.067c-11.378 0-22.756 0-34.133 5.689s-22.756 11.378-28.444 17.067c5.689 5.689 5.689 11.378 11.378 11.378 5.689 5.689 5.689 11.378 11.378 11.378 0 0 5.689-5.689 5.689-5.689 5.689 0 5.689-5.689 11.378-5.689s5.689 0 11.378-5.689c5.689 0 5.689 0 11.378 0v51.2c-5.689 0-11.378 5.689-22.756 5.689-5.689 0-11.378 5.689-17.067 11.378s-11.378 11.378-11.378 11.378-5.689 11.378-5.689 22.756c0 5.689 0 17.067 5.689 22.756s5.689 11.378 11.378 17.067c5.689 5.689 11.378 5.689 17.067 11.378 5.689 0 11.378 5.689 17.067 5.689v11.378h17.067v-17.067zM711.111 521.956c-5.689 0-5.689 0-11.378-5.689-5.689 0-5.689-5.689-5.689-11.378s0-11.378 5.689-11.378c5.689 0 5.689-5.689 11.378-5.689v34.133zM728.178 413.867c5.689 0 11.378 0 11.378 5.689 5.689 5.689 5.689 5.689 5.689 11.378s0 11.378-5.689 11.378-11.378 5.689-11.378 5.689v-34.133z" />
<glyph unicode="&#xe606;" d="M-17.067-64v1006.933h591.644v-130.844h-85.333v45.511h-420.978v-739.556l210.489 170.667 210.489-170.667v108.089h85.333v-290.133l-295.822 244.622zM529.067 271.644c-136.533 0-250.311 113.778-250.311 250.311s113.778 250.311 250.311 250.311 250.311-113.778 250.311-250.311-113.778-250.311-250.311-250.311zM529.067 681.244c-91.022 0-164.978-73.956-164.978-164.978s73.956-164.978 164.978-164.978 164.978 73.956 164.978 164.978-73.956 164.978-164.978 164.978zM494.933 612.978h68.267v-182.044h-68.267v182.044zM438.044 556.089h182.044v-68.267h-182.044v68.267z" />
<glyph unicode="&#xe607;" d="M984.178 4.267h-967.111v876.089h967.111v-876.089zM96.711 89.6h796.444v705.422h-796.444v-705.422zM62.578 686.933h881.778v-85.333h-881.778v85.333zM358.4 385.422h22.756c5.689 0 11.378 0 17.067 0s11.378 0 17.067 5.689c5.689 0 5.689 5.689 11.378 11.378s5.689 11.378 5.689 17.067-5.689 17.067-11.378 22.756c-11.378 5.689-17.067 11.378-28.444 11.378s-17.067 0-22.756-5.689-11.378-17.067-17.067-22.756l-68.267 17.067c5.689 11.378 5.689 22.756 17.067 34.133 5.689 11.378 17.067 17.067 22.756 22.756 11.378 0 17.067 5.689 34.133 5.689 11.378 0 22.756 5.689 34.133 5.689s28.444 0 39.822-5.689c11.378 0 22.756-5.689 28.444-11.378 11.378-5.689 17.067-17.067 22.756-28.444s5.689-22.756 5.689-39.822c0-17.067-5.689-28.444-11.378-45.511-11.378-11.378-22.756-17.067-39.822-22.756v0c11.378 0 17.067-5.689 22.756-5.689 5.689-5.689 11.378-11.378 17.067-17.067s5.689-11.378 11.378-22.756c0-5.689 5.689-17.067 5.689-22.756 0-17.067-5.689-28.444-11.378-39.822s-11.378-22.756-22.756-28.444c-11.378-5.689-22.756-11.378-34.133-17.067s-28.444-5.689-39.822-5.689-51.2 5.689-68.267 17.067c-17.067 11.378-34.133 34.133-39.822 56.889l68.267 17.067c0-11.378 5.689-17.067 11.378-22.756s17.067-11.378 28.444-11.378c11.378 0 22.756 5.689 28.444 11.378s11.378 17.067 11.378 28.444c0 5.689 0 17.067-5.689 17.067-5.689 5.689-5.689 5.689-11.378 11.378 0 5.689-5.689 11.378-11.378 11.378s-11.378 0-22.756 0h-17.067v51.2zM648.533 436.622l-62.578-51.2-34.133 39.822 96.711 79.644h56.889v-301.511h-62.578v233.244zM216.178 937.244h85.333v-164.978h-85.333v164.978zM694.044 937.244h85.333v-164.978h-85.333v164.978z" />
<glyph unicode="&#xe608;" d="M995.556 106.667h-967.111v705.422h210.489l85.333 147.911h386.844l79.644-142.222h204.8v-711.111zM113.778 192h796.444v534.756h-170.667l-79.644 142.222h-284.444l-79.644-142.222h-182.044v-534.756zM512 254.578c-130.844 0-238.933 108.089-238.933 238.933s108.089 238.933 238.933 238.933 238.933-108.089 238.933-238.933-108.089-238.933-238.933-238.933zM512 647.111c-85.333 0-153.6-68.267-153.6-153.6s68.267-153.6 153.6-153.6 153.6 68.267 153.6 153.6-68.267 153.6-153.6 153.6z" />
<glyph unicode="&#xe609;" d="M989.867 95.289h-944.356v694.044h944.356v-694.044zM130.844 180.622h773.689v523.378h-773.689v-523.378zM250.311 260.267l-62.578 62.578 136.533 142.222 85.333-73.956 125.156 142.222 91.022-96.711 159.289 182.044 62.578-56.889-216.178-256-96.711 102.4-119.467-136.533-85.333 73.956z" />
<glyph unicode="&#xe60a;" d="M335.644 561.778c0-22.756-17.067-39.822-39.822-39.822v0c-22.756 5.689-39.822 22.756-39.822 39.822v0c0 22.756 17.067 39.822 39.822 39.822v0c22.756 0 39.822-17.067 39.822-39.822v0zM295.822 499.2c-34.133 0-68.267 28.444-68.267 62.578s28.444 68.267 68.267 68.267 68.267-28.444 68.267-68.267-28.444-62.578-68.267-62.578zM295.822 573.156c-5.689 0-11.378-5.689-11.378-11.378 0-11.378 17.067-11.378 17.067 0 5.689 5.689 0 11.378-5.689 11.378zM517.689 561.778c0-22.756-17.067-39.822-39.822-39.822v0c-22.756 5.689-39.822 22.756-39.822 39.822v0c0 22.756 17.067 39.822 39.822 39.822v0c22.756 0 39.822-17.067 39.822-39.822v0zM477.867 499.2c-34.133 0-68.267 28.444-68.267 62.578s28.444 68.267 68.267 68.267 68.267-28.444 68.267-68.267-34.133-62.578-68.267-62.578zM477.867 573.156c-5.689 0-11.378-5.689-11.378-11.378 0-11.378 17.067-11.378 17.067 0 5.689 5.689 0 11.378-5.689 11.378zM699.733 561.778c0-22.756-17.067-39.822-39.822-39.822v0c-22.756 0-39.822 17.067-39.822 39.822v0c0 22.756 17.067 39.822 39.822 39.822v0c22.756 0 39.822-17.067 39.822-39.822v0zM659.911 499.2c-34.133 0-68.267 28.444-68.267 68.267s28.444 68.267 68.267 68.267 68.267-28.444 68.267-68.267-34.133-68.267-68.267-68.267zM659.911 573.156c-5.689 0-11.378-5.689-11.378-11.378 0-11.378 17.067-11.378 17.067 0 5.689 5.689 0 11.378-5.689 11.378zM164.978-41.244v256h-159.289v699.733h938.667v-694.044h-523.378l-256-261.689zM91.022 300.089h153.6v-136.533l136.533 136.533h477.867v529.067h-768v-529.067z" />
<glyph unicode="&#xe60b;" d="M489.244 174.933l-290.133 290.133 56.889 56.889 233.244-227.556 227.556 227.556 62.578-56.889z" />
<glyph unicode="&#xe60c;" d="M472.178 169.244l-56.889 56.889 227.556 233.244-227.556 227.556 56.889 62.578 290.133-290.133z" />
<glyph unicode="&#xe60d;" d="M517.689 4.267c-108.089 0-216.178 45.511-295.822 119.467-79.644 79.644-119.467 182.044-119.467 290.133s45.511 216.178 119.467 290.133c79.644 85.333 187.733 130.844 295.822 130.844s216.178-45.511 295.822-119.467c79.644-79.644 119.467-182.044 119.467-290.133s-45.511-216.178-119.467-290.133c-79.644-85.333-187.733-130.844-295.822-130.844zM517.689 749.511c-85.333 0-170.667-34.133-233.244-96.711s-96.711-142.222-96.711-233.244c0-85.333 34.133-170.667 96.711-233.244s142.222-96.711 233.244-96.711c85.333 0 170.667 34.133 233.244 96.711s96.711 142.222 96.711 233.244c0 85.333-34.133 170.667-96.711 233.244s-147.911 96.711-233.244 96.711zM423.547 560.675l237.804-236.864-48.176-48.367-237.804 236.864 48.176 48.367zM613.080 564.776l48.217-48.326-237.603-237.066-48.217 48.326 237.603 237.066z" />
<glyph unicode="&#xe60e;" d="M898.844 106.667h-893.156v665.6h893.156v-665.6zM91.022 192h722.489v494.933h-722.489v-494.933zM449.422 271.644l-392.533 392.533 56.889 62.578 335.644-335.644 341.333 335.644 62.578-62.578z" />
<glyph unicode="&#xe60f;" d="M915.911 15.644h-807.822c-34.133 0-62.578 17.067-79.644 45.511s-17.067 62.578 0 91.022l403.911 728.178c17.067 28.444 45.511 45.511 79.644 45.511s62.578-17.067 79.644-45.511l403.911-733.867c17.067-28.444 17.067-62.578 0-85.333s-45.511-45.511-79.644-45.511zM506.311 840.533l-403.911-733.867 5.689-5.689h813.511c0 0 0 0 0 0l-403.911 739.556h-11.378zM563.2 260.267c0-17.067-5.689-28.444-17.067-39.822s-22.756-17.067-39.822-17.067c-17.067 0-28.444 5.689-39.822 17.067s-17.067 22.756-17.067 39.822 5.689 28.444 17.067 39.822c11.378 11.378 22.756 17.067 39.822 17.067s28.444-5.689 39.822-17.067c11.378-11.378 17.067-22.756 17.067-39.822zM557.511 356.978h-91.022v244.622h91.022v-244.622z" />
<glyph unicode="&#xe610;" d="M176.356 89.6l79.644 284.444-238.933 216.178h324.267l136.533 273.067 136.533-273.067h324.267l-238.933-221.867 73.956-284.444-301.511 147.911-295.822-142.222zM477.867 328.533l170.667-85.333-39.822 147.911 113.778 102.4h-159.289l-85.333 170.667-85.333-164.978-159.289 5.689 113.778-102.4-39.822-147.911 170.667 73.956z" />
<glyph unicode="&#xe611;" d="M176.356 749.511h221.867v-56.889h-221.867v56.889zM176.356 305.778h438.044v-56.889h-438.044v56.889zM176.356 590.222h438.044v-56.889h-438.044v56.889zM176.356 453.689h438.044v-56.889h-438.044v56.889zM790.756 61.156h-773.689v870.4h568.889l204.8-204.8v-665.6zM102.4 146.489h603.022v546.133l-153.6 153.6h-449.422v-699.733zM733.867 692.622h-238.933v210.489h56.889v-153.6h182.044z" />
<glyph unicode="&#xe612;" d="M955.733 61.156h-921.6v733.867h409.6l39.822-113.778h466.489v-620.089zM119.467 146.489h745.244v455.111h-438.044l-39.822 113.778h-267.378v-568.889z" />
<glyph unicode="&#xe613;" d="M489.244-7.111l-22.756 11.378c-17.067 11.378-455.111 250.311-455.111 506.311 0 147.911 119.467 267.378 267.378 267.378 96.711 0 159.289-51.2 204.8-108.089 51.2 56.889 113.778 108.089 204.8 108.089 147.911 0 267.378-119.467 267.378-267.378 0-256-438.044-494.933-455.111-506.311l-11.378-11.378zM284.444 692.622c-102.4 0-182.044-79.644-182.044-182.044 0-159.289 267.378-347.022 392.533-420.978 125.156 73.956 392.533 261.689 392.533 420.978 0 102.4-79.644 182.044-182.044 182.044-73.956 0-113.778-39.822-170.667-119.467l-45.511-45.511-34.133 51.2c-56.889 79.644-108.089 113.778-170.667 113.778z" />
<glyph unicode="&#xe614;" d="M540.444-35.556c-267.378 0-483.556 216.178-483.556 483.556s216.178 483.556 483.556 483.556 483.556-221.867 483.556-483.556-216.178-483.556-483.556-483.556zM540.444 840.533c-216.178 0-398.222-176.356-398.222-398.222s176.356-398.222 398.222-398.222 398.222 176.356 398.222 398.222-182.044 398.222-398.222 398.222zM500.622 271.644c-11.378-11.378-17.067-22.756-17.067-39.822s5.689-28.444 17.067-39.822c11.378-11.378 22.756-17.067 39.822-17.067s28.444 5.689 39.822 17.067c11.378 11.378 17.067 22.756 17.067 39.822s-5.689 28.444-17.067 39.822c-22.756 22.756-56.889 22.756-79.644 0zM682.667 618.667c-5.689 17.067-17.067 28.444-28.444 39.822s-28.444 22.756-45.511 28.444c-17.067 5.689-34.133 11.378-56.889 11.378-39.822 0-73.956-11.378-102.4-34.133-34.133-22.756-51.2-56.889-56.889-96.711v-11.378l91.022-11.378v11.378c0 17.067 11.378 34.133 22.756 45.511 5.689 11.378 22.756 17.067 39.822 17.067 5.689 0 17.067 0 22.756-5.689s11.378-5.689 17.067-11.378c5.689-5.689 11.378-11.378 11.378-17.067 5.689-5.689 5.689-17.067 5.689-22.756s0-17.067-5.689-22.756c-5.689-5.689-5.689-17.067-11.378-22.756s-11.378-11.378-17.067-17.067c-5.689-5.689-11.378-17.067-22.756-22.756-5.689-5.689-17.067-11.378-22.756-17.067-5.689-11.378-11.378-17.067-11.378-22.756-5.689-5.689-11.378-17.067-11.378-28.444s-5.689-17.067-5.689-34.133v-51.2h85.333v39.822c0 5.689 0 17.067 0 22.756s0 11.378 5.689 11.378c0 5.689 5.689 5.689 5.689 11.378 5.689 5.689 11.378 11.378 17.067 17.067l45.511 45.511c17.067 17.067 22.756 34.133 28.444 45.511s5.689 28.444 5.689 45.511c5.689 22.756 0 45.511-5.689 56.889z" />
<glyph unicode="&#xe615;" d="M847.644 55.467h-716.8v432.356h-142.222l506.311 398.222 483.556-398.222h-130.844v-432.356zM216.178 140.8h546.133v415.289l-267.378 216.178-278.756-216.178v-415.289zM591.644 95.289h-85.333v221.867h-45.511v-221.867h-85.333v307.2h216.178z" />
<glyph unicode="&#xe616;" d="M438.044 647.111c0 11.378 5.689 28.444 17.067 39.822s22.756 17.067 39.822 17.067c17.067 0 28.444-5.689 39.822-17.067s17.067-28.444 17.067-39.822c0-17.067-5.689-28.444-17.067-39.822s-22.756-17.067-39.822-17.067c-17.067 0-28.444 5.689-39.822 17.067s-17.067 22.756-17.067 39.822zM449.422 544.711h96.711v-318.578h-96.711v318.578zM494.933-18.489c-267.378 0-483.556 216.178-483.556 483.556 5.689 267.378 216.178 477.867 483.556 477.867s483.556-216.178 483.556-483.556c0-261.689-216.178-477.867-483.556-477.867zM494.933 857.6c-216.178 0-398.222-176.356-398.222-398.222 0-216.178 176.356-398.222 398.222-398.222s398.222 176.356 398.222 398.222c0 221.867-176.356 398.222-398.222 398.222z" />
<glyph unicode="&#xe617;" d="M500.622-7.111c-250.311 0-449.422 204.8-449.422 449.422s204.8 449.422 449.422 449.422c176.356 0 341.333-108.089 409.6-267.378 22.756-56.889 39.822-119.467 39.822-182.044 5.689-250.311-199.111-449.422-449.422-449.422zM500.622 806.4c-199.111 0-364.089-164.978-364.089-364.089s164.978-364.089 364.089-364.089c199.111 0 364.089 164.978 364.089 364.089 0 51.2-11.378 102.4-28.444 147.911-56.889 130.844-187.733 216.178-335.644 216.178zM506.311 567.467c-130.844 0-256 17.067-347.022 51.2l17.067 51.2c91.022-28.444 204.8-45.511 329.956-45.511s238.933 17.067 329.956 45.511l17.067-51.2c-96.711-34.133-221.867-51.2-347.022-51.2zM176.356 197.689l-17.067 51.2c96.711 34.133 216.178 51.2 347.022 51.2s250.311-17.067 347.022-51.2l-17.067-51.2c-91.022 28.444-204.8 45.511-329.956 45.511s-238.933-17.067-329.956-45.511zM608.711 27.022l-51.2 22.756c45.511 91.022 73.956 233.244 73.956 386.844s-28.444 295.822-73.956 386.844l51.2 22.756c45.511-91.022 73.956-244.622 73.956-403.911 0-164.978-28.444-312.889-73.956-415.289zM398.222 21.333c-51.2 102.4-79.644 250.311-79.644 415.289 5.689 159.289 34.133 307.2 79.644 409.6l51.2-22.756c-45.511-91.022-68.267-238.933-68.267-392.533s28.444-295.822 73.956-386.844l-56.889-22.756zM102.4 465.067h802.133v-56.889h-802.133v56.889z" />
<glyph unicode="&#xe618;" d="M540.444-29.867l-34.133 45.511c-28.444 39.822-301.511 398.222-301.511 574.578 0 187.733 153.6 341.333 341.333 341.333s341.333-153.6 341.333-341.333c0-170.667-273.067-534.756-307.2-574.578l-39.822-45.511zM540.444 840.533c-142.222 0-256-113.778-256-256 0-108.089 159.289-352.711 256-477.867 91.022 125.156 256 369.778 256 477.867 0 142.222-113.778 256-256 256zM540.444 430.933c-73.956 0-142.222 62.578-142.222 142.222s62.578 142.222 142.222 142.222 142.222-62.578 142.222-142.222-62.578-142.222-142.222-142.222zM540.444 658.489c-45.511 0-85.333-39.822-85.333-85.333s39.822-85.333 85.333-85.333 85.333 39.822 85.333 85.333-39.822 85.333-85.333 85.333z" />
<glyph unicode="&#xe619;" d="M403.911 573.156c11.378 11.378 28.444 22.756 39.822 28.444 17.067 11.378 34.133 17.067 51.2 17.067 0-22.756 0-39.822 5.689-62.578-11.378 0-22.756 0-28.444-5.689-11.378-5.689-22.756-11.378-28.444-17.067l51.2-51.2c11.378 11.378 17.067 17.067 28.444 22.756 11.378 0 22.756 5.689 34.133 5.689s22.756 0 34.133 0c17.067-5.689 28.444-11.378 34.133-22.756 11.378-11.378 17.067-22.756 22.756-34.133s5.689-22.756 5.689-34.133c0-11.378-5.689-22.756-11.378-34.133s-11.378-22.756-22.756-28.444l22.756-22.756-17.067-28.444-22.756 22.756c-11.378-11.378-28.444-22.756-45.511-34.133s-34.133-11.378-56.889-17.067c0 11.378 0 22.756 0 34.133s0 22.756 0 34.133c5.689 0 11.378 0 17.067 0s11.378 0 17.067 5.689c5.689 0 11.378 5.689 17.067 5.689s11.378 5.689 11.378 11.378l-56.889 56.889c-11.378-5.689-17.067-11.378-28.444-17.067s-22.756-11.378-34.133-11.378c-11.378 0-22.756 0-34.133 5.689-11.378 0-22.756 5.689-28.444 17.067-11.378 11.378-17.067 22.756-22.756 34.133s-5.689 22.756-5.689 34.133c0 11.378 5.689 22.756 11.378 34.133s11.378 22.756 17.067 28.444l-17.067 22.756 22.756 22.756 17.067-22.756zM420.978 510.578c-5.689-5.689-5.689-11.378-5.689-17.067s0-17.067 11.378-22.756c5.689-5.689 11.378-11.378 22.756-11.378 5.689 0 17.067 5.689 22.756 5.689l-51.2 45.511zM585.956 391.111c5.689 5.689 11.378 17.067 11.378 22.756s-5.689 17.067-11.378 22.756-17.067 11.378-22.756 11.378c-11.378 0-17.067-5.689-28.444-5.689l51.2-51.2zM273.067 726.756c0-28.277-22.923-51.2-51.2-51.2s-51.2 22.923-51.2 51.2c0 28.277 22.923 51.2 51.2 51.2s51.2-22.923 51.2-51.2zM563.2-1.422c-28.444 0-51.2 11.378-68.267 28.444l-420.978 420.978c-17.067 17.067-28.444 39.822-28.444 62.578l-11.378 301.511c0 28.444 5.689 51.2 28.444 73.956 17.067 17.067 39.822 28.444 68.267 28.444l307.2-11.378c22.756 0 45.511-11.378 62.578-28.444l420.978-420.978c39.822-39.822 39.822-102.4 0-136.533l-290.133-290.133c-17.067-22.756-39.822-28.444-68.267-28.444zM130.844 829.156c-5.689 0-5.689 0-11.378-5.689 0 0-5.689-5.689-5.689-11.378l11.378-301.511c0-5.689 0-5.689 5.689-5.689l420.978-420.978c5.689-5.689 11.378-5.689 17.067 0l290.133 290.133c5.689 5.689 5.689 5.689 5.689 11.378 0 0 0 5.689-5.689 11.378l-415.289 415.289c0 0-5.689 5.689-5.689 5.689l-307.2 11.378z" />
<glyph unicode="&#xe61a;" d="M369.778 328.533h324.267v-56.889h-324.267v56.889zM375.467 231.822h199.111v-56.889h-199.111v56.889zM773.689 630.044h56.889v-56.889h-56.889v56.889zM1012.622 260.267h-233.244v85.333h147.911v335.644h-785.067v-335.644h102.4v-85.333h-187.733v506.311h955.733zM847.644-7.111h-625.778v489.244h625.778v-489.244zM307.2 78.222h455.111v318.578h-455.111v-318.578zM847.644 721.067h-85.333v164.978h-455.111v-147.911h-85.333v233.244h625.778z" />
<glyph unicode="&#xe61b;" d="M568.889 436.622l-62.578 62.578 170.667 170.667-170.667 170.667 62.578 62.578 227.556-233.244zM39.822 709.689h648.533v-85.333h-648.533v85.333zM273.067-1.422l-233.244 227.556 233.244 233.244 56.889-56.889-170.667-176.356 170.667-170.667zM153.6 271.644h648.533v-85.333h-648.533v85.333z" />
<glyph unicode="&#xe61c;" d="M807.822-81.067h-631.467v642.844h85.333v-557.511h460.8v557.511h85.333zM887.467 516.267h-790.756v233.244h790.756v-233.244zM182.044 601.6h620.089v62.578h-620.089v-62.578zM665.6 709.689h-85.333v96.711h-176.356v-96.711h-85.333v102.4c0 45.511 34.133 79.644 79.644 79.644h193.422c45.511 0 79.644-34.133 79.644-79.644v-102.4zM335.644 436.622h56.889v-341.333h-56.889v341.333zM466.489 436.622h56.889v-341.333h-56.889v341.333zM591.644 436.622h56.889v-341.333h-56.889v341.333z" />
<glyph unicode="&#xe61d;" d="M415.289 231.822v432.356l347.022-216.178-347.022-216.178zM500.622 510.578v-125.156l102.4 62.578-102.4 62.578zM836.267 66.844h-608.711c-91.022 0-164.978 73.956-164.978 164.978v438.044c0 91.022 73.956 164.978 164.978 164.978h608.711c91.022 0 164.978-73.956 164.978-164.978v-438.044c0-91.022-73.956-164.978-164.978-164.978zM227.556 743.822c-45.511 0-79.644-34.133-79.644-79.644v-438.044c0-45.511 34.133-79.644 79.644-79.644h608.711c45.511 0 79.644 34.133 79.644 79.644v443.733c0 45.511-34.133 79.644-79.644 79.644h-608.711z" />
<glyph unicode="&#xe61e;" d="M381.156 721.067h341.333v-56.889h-341.333v56.889zM381.156 521.956h341.333v-56.889h-341.333v56.889zM381.156 311.467h341.333v-56.889h-341.333v56.889zM136.533 721.067h56.889v-210.489h-56.889v210.489zM136.533 453.689h56.889v-227.556h-56.889v227.556zM136.533 891.733v-113.778h56.889v56.889h631.467v-728.178h-631.467v62.578h-56.889v-119.467h745.244v841.956zM244.622 721.067v56.889h-164.978v-56.889h113.778zM244.622 453.689v56.889h-164.978v-56.889h113.778zM244.622 169.244v56.889h-164.978v-56.889h113.778z" />
<glyph unicode="&#xe61f;" d="M779.378 27.022h-204.8v267.378h-193.422v-267.378h-193.422v449.422h-11.378l312.889 244.622 56.889-45.511c11.378 17.067 22.756 28.444 39.822 39.822l-96.711 79.644-472.178-375.467h113.778v-449.422h705.422v318.578c-17.067-5.689-39.822-11.378-56.889-11.378v-250.311zM438.044 243.2h79.644v-210.489h-79.644v210.489zM1006.933 527.644c0 125.156-91.022 233.244-210.489 250.311v22.756h56.889v85.333h-199.111v-85.333h56.889v-22.756c-51.2-5.689-96.711-28.444-130.844-62.578-11.378-11.378-22.756-22.756-34.133-39.822-28.444-39.822-45.511-91.022-45.511-147.911 0-142.222 113.778-256 256-256 11.378 0 17.067 0 28.444 0 17.067 0 39.822 5.689 56.889 11.378 96.711 39.822 164.978 136.533 164.978 244.622zM557.511 527.644c0 108.089 91.022 199.111 199.111 199.111s199.111-91.022 199.111-199.111-91.022-193.422-199.111-193.422-199.111 85.333-199.111 193.422zM756.622 755.2v0 0zM785.067 516.267v147.911h-56.889v-119.467l-91.022-68.267 34.133-45.511z" />
<glyph unicode="&#xe621;" d="M551.822-18.489c-102.4 0-199.111 39.822-267.378 113.778-73.956 73.956-113.778 164.978-113.778 267.378s39.822 199.111 113.778 267.378c73.956 73.956 164.978 113.778 267.378 113.778s199.111-39.822 267.378-113.778 113.778-164.978 113.778-267.378-39.822-199.111-113.778-267.378c-68.267-73.956-164.978-113.778-267.378-113.778zM551.822 658.489c-79.644 0-153.6-34.133-204.8-91.022-56.889-56.889-85.333-130.844-85.333-210.489s28.444-153.6 85.333-210.489 130.844-85.333 210.489-85.333c79.644 0 153.6 28.444 210.489 85.333s85.333 130.844 85.333 210.489c0 79.644-28.444 153.6-85.333 210.489-62.578 56.889-136.533 91.022-216.178 91.022zM210.489 209.067c-22.756 17.067-45.511 34.133-62.578 51.2-73.956 73.956-113.778 164.978-113.778 267.378s39.822 199.111 113.778 267.378c73.956 73.956 164.978 113.778 267.378 113.778s199.111-39.822 267.378-113.778c34.133-34.133 62.578-73.956 79.644-119.467l-79.644-34.133c-11.378 39.822-34.133 68.267-56.889 91.022-56.889 56.889-130.844 85.333-210.489 85.333-79.644 5.689-153.6-28.444-204.8-85.333s-91.022-125.156-91.022-204.8c0-79.644 28.444-153.6 85.333-210.489 17.067-17.067 28.444-28.444 51.2-39.822l-45.511-68.267zM574.578 521.956c17.067 0 34.133-5.689 51.2-11.378s34.133-11.378 45.511-22.756c-17.067-17.067-28.444-34.133-45.511-45.511 0 5.689-11.378 11.378-22.756 17.067s-22.756 5.689-28.444 5.689v-68.267c11.378-5.689 22.756-5.689 34.133-11.378s22.756-11.378 34.133-17.067c11.378-5.689 17.067-17.067 22.756-28.444s11.378-22.756 11.378-39.822c0-17.067-5.689-28.444-11.378-39.822s-11.378-22.756-22.756-28.444c-11.378-5.689-22.756-11.378-34.133-17.067s-22.756-5.689-39.822-5.689v-34.133h-28.444v34.133c-17.067 0-39.822 5.689-56.889 11.378s-34.133 17.067-51.2 28.444c5.689 5.689 17.067 17.067 22.756 22.756s17.067 17.067 22.756 22.756c5.689-5.689 5.689-5.689 11.378-11.378s11.378-5.689 17.067-11.378c5.689 0 11.378-5.689 17.067-5.689s11.378 0 17.067 0v79.644c-11.378 5.689-22.756 5.689-34.133 11.378s-22.756 11.378-28.444 17.067c-11.378 0-22.756 11.378-28.444 17.067 0 11.378-5.689 22.756-5.689 39.822s5.689 28.444 11.378 39.822c5.689 11.378 11.378 22.756 22.756 28.444 5.689 5.689 17.067 11.378 28.444 17.067s22.756 5.689 34.133 5.689v34.133h34.133v-34.133zM540.444 465.067c-5.689 0-17.067-5.689-22.756-11.378 0 0-5.689-11.378-5.689-17.067 0-11.378 0-17.067 5.689-22.756s11.378-11.378 22.756-11.378v62.578zM574.578 260.267c11.378 0 17.067 5.689 22.756 11.378s11.378 11.378 11.378 22.756-5.689 17.067-11.378 22.756c-5.689 5.689-11.378 11.378-22.756 11.378v-68.267z" />
<glyph unicode="&#xe623;" d="M853.333 766.578c-85.333 85.333-199.111 130.844-318.578 130.844-250.311-5.689-455.111-204.8-455.111-455.111 0-119.467 45.511-233.244 130.844-318.578s199.111-130.844 318.578-130.844c250.311 0 449.422 204.8 455.111 455.111 0 119.467-45.511 233.244-130.844 318.578zM347.022 402.489v85.333h136.533v142.222h85.333v-142.222h147.911v-85.333h-147.911v-142.222h-85.333v142.222h-136.533z" />
<glyph unicode="&#xe624;" d="M824.889 760.889c-85.333 85.333-199.111 130.844-318.578 130.844-250.311-5.689-455.111-204.8-455.111-455.111 0-119.467 45.511-233.244 130.844-318.578s199.111-130.844 318.578-130.844c250.311 0 449.422 199.111 455.111 455.111 0 119.467-45.511 233.244-130.844 318.578zM318.578 482.133h369.778v-85.333h-369.778v85.333z" />
<glyph unicode="&#xe626;" d="M62.578-1.422l45.511 278.756 574.578 574.578 233.244-233.244-574.578-574.578-278.756-45.511zM187.733 231.822l-22.756-130.844 130.844 22.756 500.622 494.933-113.778 108.089-494.933-494.933zM584.55 692.564l172.948-172.997-60.348-60.331-172.948 172.997 60.348 60.331z" />
<glyph unicode="&#xe627;" d="M1012.622-52.622h-762.311v256c0 130.844 204.8 182.044 375.467 182.044 176.356 0 381.156-45.511 381.156-182.044v-256zM335.644 32.711h585.956v170.667c0 45.511-119.467 96.711-295.822 96.711s-290.133-51.2-290.133-96.711v-170.667zM631.467 419.556c-119.467 0-210.489 96.711-210.489 210.489s96.711 216.178 210.489 216.178 210.489-96.711 210.489-210.489-91.022-216.178-210.489-216.178zM631.467 760.889c-68.267 0-125.156-56.889-125.156-125.156s56.889-130.844 125.156-130.844 125.156 56.889 125.156 125.156-51.2 130.844-125.156 130.844zM295.822-52.622h-244.622v256c0 34.133 17.067 68.267 45.511 96.711 91.022 79.644 290.133 96.711 438.044 79.644l-11.378-85.333c-153.6 17.067-312.889-5.689-369.778-56.889-17.067-11.378-17.067-22.756-17.067-28.444v-170.667h159.289v-91.022zM426.667 419.556c-119.467 0-210.489 96.711-210.489 210.489s96.711 216.178 210.489 216.178c45.511 0 91.022-17.067 125.156-39.822l-45.511-73.956c-22.756 17.067-51.2 28.444-79.644 28.444-68.267 0-125.156-56.889-125.156-125.156s56.889-130.844 125.156-130.844c28.444 0 56.889 11.378 73.956 22.756l51.2-68.267c-34.133-22.756-73.956-39.822-125.156-39.822z" />
<glyph unicode="&#xe62c;" d="M119.467 698.311h790.756v-85.333h-790.756v85.333zM119.467 482.133h790.756v-85.333h-790.756v85.333zM119.467 260.267h790.756v-85.333h-790.756v85.333z" />
<glyph unicode="&#xe630;" d="M859.022 15.644h-756.622v256c0 130.844 204.8 182.044 375.467 182.044 176.356 0 381.156-45.511 381.156-182.044v-256zM187.733 100.978h585.956v170.667c0 45.511-119.467 96.711-295.822 96.711s-290.133-51.2-290.133-96.711v-170.667zM483.556 487.822c-119.467 0-210.489 96.711-210.489 210.489s96.711 210.489 210.489 210.489c119.467 0 210.489-96.711 210.489-210.489s-91.022-210.489-210.489-210.489zM483.556 829.156c-68.267 0-125.156-56.889-125.156-125.156s56.889-125.156 125.156-125.156 125.156 56.889 125.156 125.156-51.2 125.156-125.156 125.156z" />
<glyph unicode="&#xe631;" d="M500.622 260.267l-164.978 142.222 51.2 68.267 102.4-91.022 170.667 227.556 68.267-51.2zM529.067-52.622c-267.378 0-483.556 216.178-483.556 483.556s216.178 483.556 483.556 483.556 483.556-216.178 483.556-483.556-216.178-483.556-483.556-483.556zM529.067 829.156c-216.178 0-398.222-176.356-398.222-398.222s176.356-398.222 398.222-398.222 398.222 176.356 398.222 398.222-176.356 398.222-398.222 398.222z" />
<glyph unicode="&#xe632;" d="M460.8-46.933l-56.889 62.578 164.978 164.978-164.978 164.978 56.889 62.578 227.556-227.556zM574.578 135.111h-96.711c-238.933 0-432.356 193.422-432.356 432.356h85.333c0-187.733 153.6-347.022 347.022-347.022h96.711v-85.333zM585.956 482.133l-221.867 227.556 221.867 221.867 62.578-56.889-164.978-164.978 164.978-164.978zM1006.933 317.156h-85.333c0 187.733-153.6 347.022-347.022 347.022h-96.711v85.333h96.711c238.933 0 432.356-193.422 432.356-432.356z" />
<glyph unicode="&#xe633;" d="M307.2 186.311l-221.867 227.556 56.889 62.578 164.978-164.978 164.978 164.978 62.578-62.578zM637.156 89.6v85.333c159.289 0 284.444 125.156 284.444 284.444s-125.156 284.444-284.444 284.444-284.444-125.156-284.444-284.444v-153.6h-85.333v153.6c0 204.8 164.978 369.778 369.778 369.778s369.778-164.978 369.778-369.778-164.978-369.778-369.778-369.778z" />
<glyph unicode="&#xe634;" d="M614.4-52.622h-250.311v819.2h250.311v-819.2zM449.422 32.711h79.644v648.533h-79.644v-648.533zM318.578-52.622h-244.622v523.378h250.311v-523.378zM159.289 32.711h79.644v352.711h-79.644v-352.711zM910.222-52.622h-250.311v347.022h250.311v-347.022zM745.244 32.711h79.644v176.356h-79.644v-176.356z" />
<glyph unicode="&#xe635;" d="M403.911 163.556c-85.333 0-170.667 34.133-233.244 96.711-125.156 125.156-125.156 335.644 0 460.8 62.578 62.578 142.222 96.711 233.244 96.711s170.667-34.133 233.244-96.711c125.156-125.156 125.156-335.644 0-460.8-62.578-62.578-147.911-96.711-233.244-96.711zM403.911 732.444c-62.578 0-125.156-28.444-170.667-73.956-96.711-96.711-96.711-244.622 0-341.333 45.511-45.511 108.089-68.267 170.667-68.267s125.156 22.756 170.667 68.267c96.711 96.711 96.711 244.622 0 341.333-45.511 45.511-108.089 73.956-170.667 73.956zM633.471 318.578l253.425-253.425-60.339-60.339-253.425 253.425 60.339 60.339z" />
<glyph unicode="&#xe636;" d="M881.778-35.556h-682.667c-39.822 0-73.956 34.133-73.956 73.956v472.178c0 39.822 34.133 73.956 73.956 73.956h688.356c39.822 0 73.956-34.133 73.956-73.956v-472.178c0-39.822-34.133-73.956-79.644-73.956zM204.8 49.778h671.289v449.422h-671.289v-449.422zM847.644 544.711h-85.333v108.089c0 56.889-28.444 113.778-68.267 159.289-45.511 34.133-96.711 56.889-147.911 56.889h-11.378c-119.467 0-221.867-96.711-221.867-221.867v-108.089h-79.644v113.778c0 170.667 136.533 307.2 307.2 307.2 79.644 0 159.289-28.444 216.178-85.333 62.578-56.889 96.711-136.533 96.711-221.867v-108.089zM477.867 561.778h-85.333v73.956c0 79.644 62.578 142.222 142.222 142.222s147.911-62.578 147.911-142.222v-68.267h-85.333v68.267c0 34.133-28.444 56.889-56.889 56.889-34.133 0-62.578-28.444-62.578-56.889v-73.956zM540.444 214.756c-56.889 0-102.4 45.511-102.4 102.4s45.511 102.4 102.4 102.4 102.4-45.511 102.4-102.4-45.511-102.4-102.4-102.4zM540.444 362.667c-22.756 0-45.511-17.067-45.511-45.511 0-22.756 17.067-45.511 45.511-45.511s45.511 17.067 45.511 45.511c0 22.756-22.756 45.511-45.511 45.511zM512 243.2h56.889v-102.4h-56.889v102.4z" />
<glyph unicode="&#xe637;" d="M580.267 4.267h-164.978c-34.133 0-62.578 28.444-62.578 62.578v73.956c-22.756 11.378-39.822 22.756-56.889 34.133l-51.2-34.133c-34.133-17.067-73.956-5.689-91.022 22.756l-79.644 130.844c-17.067 28.444-11.378 68.267 22.756 85.333l51.2 34.133c0 17.067-5.689 34.133-5.689 51.2s0 34.133 5.689 51.2l-56.889 34.133c-11.378 11.378-22.756 22.756-28.444 39.822s0 34.133 5.689 45.511l79.644 130.844c22.756 34.133 62.578 39.822 91.022 22.756l51.2-34.133c22.756 17.067 39.822 28.444 62.578 34.133v73.956c0 34.133 28.444 62.578 62.578 62.578h164.978c34.133 0 62.578-28.444 62.578-62.578v-73.956c22.756-11.378 39.822-22.756 62.578-34.133l45.511 34.133c28.444 17.067 68.267 5.689 85.333-22.756l79.644-130.844c11.378-17.067 11.378-28.444 5.689-45.511s-11.378-28.444-28.444-39.822l-51.2-34.133c0-17.067 5.689-34.133 5.689-51.2s0-34.133-5.689-51.2l56.889-34.133c28.444-17.067 39.822-56.889 22.756-85.333l-79.644-130.844c-11.378-17.067-34.133-28.444-51.2-28.444v0c-11.378 0-22.756 5.689-34.133 11.378l-56.889 34.133c-17.067-11.378-39.822-22.756-56.889-34.133v-73.956c0-39.822-28.444-68.267-62.578-68.267zM438.044 89.6h119.467v108.089l28.444 11.378c34.133 11.378 62.578 28.444 85.333 45.511l22.756 22.756 85.333-51.2 56.889 91.022-85.333 51.2 5.689 28.444c5.689 22.756 5.689 45.511 5.689 62.578 0 22.756 0 45.511-5.689 62.578l-5.689 39.822 85.333 51.2-56.889 91.022-85.333-51.2-22.756 22.756c-22.756 22.756-56.889 34.133-85.333 45.511l-28.444 11.378v108.089h-119.467v-108.089l-28.444-11.378c-34.133-11.378-62.578-28.444-85.333-51.2l-22.756-17.067-85.333 51.2-56.889-91.022 85.333-51.2-11.378-34.133c-5.689-22.756-5.689-39.822-5.689-62.578s0-39.822 5.689-62.578l5.689-28.444-85.333-51.2 56.889-91.022 91.022 45.511 22.756-22.756c22.756-22.756 51.2-39.822 85.333-45.511l28.444-11.378v-108.089zM494.933 300.089c-91.022 0-164.978 73.956-164.978 164.978s73.956 164.978 164.978 164.978 164.978-73.956 164.978-164.978-68.267-164.978-164.978-164.978zM494.933 573.156c-62.578 0-108.089-51.2-108.089-108.089s51.2-108.089 108.089-108.089 108.089 51.2 108.089 108.089-45.511 108.089-108.089 108.089z" />
<glyph unicode="&#xe638;" d="M768 584.533l-244.622-238.933-238.933 238.933zM523.378 300.089l-307.2 312.889h620.089l-312.889-312.889zM352.711 556.089l170.667-170.667 170.667 170.667h-341.333z" />
<glyph unicode="&#xe639;" d="M523.378 4.267c-256 0-466.489 210.489-466.489 466.489s210.489 466.489 466.489 466.489c256 0 466.489-210.489 466.489-466.489-5.689-256-210.489-466.489-466.489-466.489zM523.378 851.911c-210.489 0-381.156-170.667-381.156-381.156s170.667-381.156 381.156-381.156c210.489 0 381.156 170.667 381.156 381.156-5.689 210.489-176.356 381.156-381.156 381.156zM523.378 192c-153.6 0-278.756 125.156-278.756 278.756s125.156 278.756 278.756 278.756c153.6 0 278.756-125.156 278.756-278.756-5.689-153.6-130.844-278.756-278.756-278.756zM523.378 664.178c-108.089 0-193.422-85.333-193.422-193.422s85.333-193.422 193.422-193.422 193.422 85.333 193.422 193.422c-5.689 108.089-91.022 193.422-193.422 193.422zM608.711 470.756c0-47.128-38.205-85.333-85.333-85.333s-85.333 38.205-85.333 85.333c0 47.128 38.205 85.333 85.333 85.333s85.333-38.205 85.333-85.333z" />
<glyph unicode="&#xe63a;" d="M512 21.333c-199.111 0-358.4 159.289-358.4 358.4s159.289 352.711 358.4 352.711c199.111 0 358.4-159.289 358.4-358.4s-164.978-352.711-358.4-352.711zM512 647.111c-147.911 0-273.067-119.467-273.067-273.067s119.467-267.378 273.067-267.378c147.911 0 273.067 119.467 273.067 273.067s-125.156 267.378-273.067 267.378zM466.489 812.089h85.333v-125.156h-85.333v125.156zM369.778 857.6h273.067v-85.333h-273.067v85.333zM386.844 248.889l-34.133 45.511 130.844 96.711v170.667h56.889v-199.111z" />
<glyph unicode="&#xe63b;" d="M716.8 38.4h-85.333v312.889h312.889v-85.333h-227.556zM736.676 303.852l281.623-281.543-60.331-60.348-281.623 281.543 60.331 60.348zM944.356 521.956h-312.889v312.889h85.333v-227.556h227.556zM958.628 908.296l60.339-60.339-281.583-281.583-60.339 60.339 281.583 281.583zM443.733 38.4h-85.333v227.556h-227.556v85.333h312.889zM331.367 304.297l60.339-60.339-277.56-277.56-60.339 60.339 277.56 277.56zM443.733 521.956h-312.889v85.333h227.556v227.556h85.333zM125.443 900.242l269.477-269.553-60.348-60.331-269.477 269.553 60.348 60.331z" />
<glyph unicode="&#xe63c;" d="M506.311 186.311l-267.378 267.378 62.578 62.578 204.8-210.489 210.489 210.489 62.578-62.578zM466.489 960h85.333v-654.222h-85.333v654.222zM995.556-69.689h-972.8v551.822h85.333v-466.489h802.133v466.489h85.333z" />
<glyph unicode="&#xe63d;" d="M51.2 578.844v312.889h312.889v-85.333h-227.556v-227.556zM157.046 849.145l438.403-438.527-60.348-60.331-438.403 438.527 60.348 60.331zM364.089-46.933h-318.578v318.578h85.333v-233.244h233.244zM533.728 500.899l60.339-60.339-438.465-438.465-60.339 60.339 438.465 438.465zM984.178 573.156h-85.333v233.244h-233.244v85.333h318.578zM874.646 843.24l60.339-60.339-438.465-438.465-60.339 60.339 438.465 438.465zM995.556-52.622h-318.578v85.333h233.244v233.244h85.333zM506.391 495.061l438.465-438.465-60.339-60.339-438.465 438.465 60.339 60.339z" />
<glyph unicode="&#xe63e;" d="M722.489 630.044l-187.733 193.422-193.422-193.422-56.889 62.578 250.311 250.311 250.311-250.311zM489.244 829.156h85.333v-603.022h-85.333v603.022zM984.178-69.689h-904.533v512h85.333v-426.667h733.867v426.667h85.333z" />
<glyph unicode="&#xe63f;" d="M148.414 865.269l438.403-438.527-60.348-60.331-438.403 438.527 60.348 60.331zM147.911 21.333l-62.578 62.578 438.044 438.044 62.578-62.578-438.044-438.044zM870.034 863.392l60.339-60.339-438.465-438.465-60.339 60.339 438.465 438.465zM876.089 15.644l-438.044 443.733 62.578 56.889 438.044-438.044-62.578-62.578z" />
<glyph unicode="&#xe650;" d="M716.8 174.933l-233.244 233.244-227.556-233.244-62.578 62.578 290.133 290.133 290.133-290.133z" />
</font>
</defs>
</svg>
